<svg xmlns="http://www.w3.org/2000/svg" viewBox="0 0 256 256" role="img" aria-label="INQlude inkpen logo">
  <defs>
    <linearGradient id="g" x1="0" x2="1" y1="0" y2="1">
      <stop offset="0" stop-color="#ffffff" stop-opacity="0.92"/>
      <stop offset="1" stop-color="#ffffff" stop-opacity="0.78"/>
    </linearGradient>
  </defs>

  <!-- Simple circular mark -->
  <circle cx="128" cy="128" r="112" fill="none" stroke="url(#g)" stroke-width="10"/>

  <!-- Nib (stylized fountain pen) -->
  <path fill="url(#g)" d="M151 52c-6 5-18 17-25 25-7-8-19-20-25-25-21 18-39 46-39 78 0 22 7 43 20 61l36-36-10-10c-3-3-3-8 0-11l20-20c3-3 8-3 11 0l20 20c3 3 3 8 0 11l-10 10 36 36c13-18 20-39 20-61 0-32-18-60-39-78Z"/>

  <!-- Slit + breather hole -->
  <path fill="#0b0f14" fill-opacity="0.22" d="M128 96c-2 0-4 2-4 4v28c0 2 2 4 4 4s4-2 4-4v-28c0-2-2-4-4-4Z"/>
  <circle cx="128" cy="86" r="6" fill="#0b0f14" fill-opacity="0.22"/>

  <!-- Small ink drop -->
  <path fill="url(#g)" d="M128 196c0 0-22 26-22 40 0 13 10 22 22 22s22-9 22-22c0-14-22-40-22-40Z"/>
</svg>
